<svg width="229" height="80" viewBox="0 0 229 80" fill="none" xmlns="http://www.w3.org/2000/svg">
<path d="M9.167 30.097H0V25.024H10.68C24.297 25.736 35.155 37.128 35.155 51.012C35.155 65.252 23.496 77 9.167 77H0V71.838H9.167C20.559 71.838 29.993 62.404 29.993 51.012C29.993 39.531 20.559 30.097 9.167 30.097Z" fill="black"/>
<path d="M59.35 77.675C55.75 77.675 52.475 76.825 49.525 75.125C46.625 73.375 44.3 71.025 42.55 68.075C40.85 65.125 40 61.825 40 58.175C40 54.575 40.825 51.325 42.475 48.425C44.125 45.475 46.35 43.15 49.15 41.45C51.95 39.7 55.075 38.825 58.525 38.825C61.875 38.825 64.875 39.7 67.525 41.45C70.225 43.15 72.35 45.475 73.9 48.425C75.5 51.325 76.3 54.575 76.3 58.175V59.9H45.475C45.775 62.35 46.55 64.55 47.8 66.5C49.1 68.45 50.775 70 52.825 71.15C54.875 72.25 57.125 72.8 59.575 72.8C61.525 72.8 63.425 72.5 65.275 71.9C67.125 71.3 68.675 70.45 69.925 69.35L73.375 73.025C71.275 74.575 69.075 75.75 66.775 76.55C64.525 77.3 62.05 77.675 59.35 77.675ZM45.625 55.475H70.75C70.45 53.225 69.7 51.225 68.5 49.475C67.35 47.675 65.9 46.275 64.15 45.275C62.4 44.225 60.475 43.7 58.375 43.7C56.225 43.7 54.25 44.2 52.45 45.2C50.65 46.2 49.15 47.6 47.95 49.4C46.75 51.15 45.975 53.175 45.625 55.475ZM96.4252 77.75C93.3252 77.75 90.4002 77.25 87.6502 76.25C84.9502 75.2 82.6002 73.75 80.6002 71.9L83.9752 68.3C85.7252 69.9 87.6502 71.15 89.7502 72.05C91.8502 72.9 94.0002 73.325 96.2002 73.325C99.2002 73.325 101.65 72.7 103.55 71.45C105.45 70.2 106.4 68.575 106.4 66.575C106.4 64.925 105.825 63.65 104.675 62.75C103.575 61.8 101.825 61.15 99.4252 60.8L92.9002 59.9C89.1502 59.35 86.3502 58.225 84.5002 56.525C82.7002 54.825 81.8002 52.525 81.8002 49.625C81.8002 47.525 82.4002 45.65 83.6002 44C84.8002 42.35 86.4502 41.05 88.5502 40.1C90.7002 39.15 93.1502 38.675 95.9002 38.675C98.6502 38.675 101.225 39.075 103.625 39.875C106.025 40.675 108.375 41.925 110.675 43.625L107.75 47.375C105.65 45.925 103.6 44.875 101.6 44.225C99.6502 43.525 97.6502 43.175 95.6002 43.175C93.0002 43.175 90.9002 43.75 89.3002 44.9C87.7002 46.05 86.9002 47.55 86.9002 49.4C86.9002 51.1 87.4502 52.4 88.5502 53.3C89.6502 54.15 91.4252 54.75 93.8752 55.1L100.4 56C104.15 56.5 106.95 57.6 108.8 59.3C110.7 61 111.65 63.325 111.65 66.275C111.65 68.425 110.975 70.375 109.625 72.125C108.275 73.875 106.45 75.25 104.15 76.25C101.9 77.25 99.3252 77.75 96.4252 77.75ZM135.888 77.675C132.288 77.675 129.013 76.825 126.063 75.125C123.163 73.375 120.838 71.025 119.088 68.075C117.388 65.125 116.538 61.825 116.538 58.175C116.538 54.575 117.363 51.325 119.013 48.425C120.663 45.475 122.888 43.15 125.688 41.45C128.488 39.7 131.613 38.825 135.063 38.825C138.413 38.825 141.413 39.7 144.063 41.45C146.763 43.15 148.888 45.475 150.438 48.425C152.038 51.325 152.838 54.575 152.838 58.175V59.9H122.013C122.313 62.35 123.088 64.55 124.338 66.5C125.638 68.45 127.313 70 129.363 71.15C131.413 72.25 133.663 72.8 136.113 72.8C138.063 72.8 139.963 72.5 141.813 71.9C143.663 71.3 145.213 70.45 146.463 69.35L149.913 73.025C147.813 74.575 145.613 75.75 143.313 76.55C141.063 77.3 138.588 77.675 135.888 77.675ZM122.163 55.475H147.288C146.988 53.225 146.238 51.225 145.038 49.475C143.888 47.675 142.438 46.275 140.688 45.275C138.938 44.225 137.013 43.7 134.913 43.7C132.763 43.7 130.788 44.2 128.988 45.2C127.188 46.2 125.688 47.6 124.488 49.4C123.288 51.15 122.513 53.175 122.163 55.475ZM160.597 77V39.425H166.147V43.85C169.097 40.4 173.047 38.675 177.997 38.675C180.847 38.675 183.347 39.3 185.497 40.55C187.697 41.75 189.397 43.45 190.597 45.65C191.847 47.8 192.472 50.325 192.472 53.225V77H186.997V54.35C186.997 51 186.047 48.375 184.147 46.475C182.297 44.525 179.747 43.55 176.497 43.55C174.247 43.55 172.247 44.05 170.497 45.05C168.747 46.05 167.297 47.475 166.147 49.325V77H160.597ZM215.436 77.75C212.186 77.75 209.686 76.975 207.936 75.425C206.186 73.875 205.311 71.625 205.311 68.675V44.15H197.211V39.425H205.311V29.9L210.786 28.475V39.425H222.111V44.15H210.786V67.25C210.786 69.25 211.236 70.7 212.136 71.6C213.036 72.45 214.511 72.875 216.561 72.875C217.611 72.875 218.536 72.8 219.336 72.65C220.186 72.5 221.086 72.25 222.036 71.9V76.775C221.086 77.125 220.011 77.375 218.811 77.525C217.661 77.675 216.536 77.75 215.436 77.75Z" fill="black"/>
</svg>
