<svg width="98" height="60" viewBox="0 0 98 60" fill="none" xmlns="http://www.w3.org/2000/svg">
<path d="M5.57964 35.7737H4.1433V32.7906H1.43635V35.7737H0V28.8959H1.43635V31.6028H4.1433V28.8959H5.57964V35.7737Z" fill="#1D1D1B"/>
<path d="M13.1867 32.3487C13.2454 33.3043 12.9504 34.2482 12.3581 35.0004C11.6869 35.5886 10.8196 35.904 9.92735 35.8843C9.04126 35.8687 8.18577 35.5576 7.49662 35.0004C6.88915 34.2562 6.59231 33.3063 6.66796 32.3487C6.60104 31.4089 6.89769 30.4794 7.49662 29.7522C8.16784 29.164 9.03509 28.8486 9.92735 28.8683C10.815 28.8752 11.6733 29.1873 12.3581 29.7522C12.957 30.4794 13.2537 31.4089 13.1867 32.3487V32.3487ZM8.15955 32.3487C8.11469 32.97 8.26954 33.5894 8.6015 34.1165C8.74488 34.3086 8.93507 34.4607 9.15394 34.5584C9.37403 34.6752 9.6271 34.7141 9.8721 34.6689C11.0322 34.6689 11.6399 33.8403 11.6399 32.3487C11.6399 30.8571 11.0875 30.0284 9.92735 30.0284C9.68254 30.0064 9.43605 30.0443 9.20919 30.1389C8.98513 30.2541 8.78016 30.4032 8.6015 30.5809C8.29437 31.1183 8.14144 31.73 8.15955 32.3487V32.3487Z" fill="#1D1D1B"/>
<path d="M18.7498 33.8954C18.7484 34.1798 18.6921 34.4611 18.5841 34.7241C18.4835 34.9872 18.3113 35.2168 18.0869 35.387C17.5323 35.7596 16.8765 35.9525 16.2086 35.9395C15.537 35.958 14.8718 35.806 14.275 35.4975V34.1164C14.6521 34.2878 15.0396 34.4354 15.4352 34.5584C15.7258 34.6223 16.0217 34.6593 16.3191 34.6689C16.5684 34.6729 16.8149 34.6161 17.0372 34.5031C17.1477 34.4479 17.203 34.3374 17.2582 34.2821C17.3032 34.1778 17.3221 34.064 17.3134 33.9507C17.3026 33.8157 17.265 33.6843 17.203 33.564L16.8715 33.2325C16.5883 33.0633 16.2929 32.9156 15.9876 32.7906C15.6562 32.6395 15.3415 32.4544 15.0485 32.2381C14.8383 32.0764 14.6682 31.8684 14.5512 31.6304C14.4432 31.3675 14.3869 31.0861 14.3855 30.8018C14.3814 30.5347 14.4381 30.2703 14.5512 30.0284C14.6518 29.7653 14.8241 29.5357 15.0485 29.3654C15.5349 28.9872 16.1476 28.8093 16.761 28.8682C17.1132 28.8777 17.4642 28.9146 17.8107 28.9787L18.805 29.3102L18.3631 30.4703C18.0869 30.3598 17.7554 30.2493 17.4239 30.1389C17.1904 30.071 16.9489 30.0339 16.7058 30.0284C16.4914 30.0235 16.2803 30.0811 16.0981 30.1941C16.0428 30.2493 15.9876 30.3598 15.9323 30.4151C15.8877 30.4999 15.8685 30.5958 15.8771 30.6913C15.8695 30.7513 15.8755 30.8122 15.8946 30.8696C15.9137 30.927 15.9455 30.9793 15.9876 31.0228C16.0501 31.1403 16.1463 31.2365 16.2638 31.299C16.54 31.4647 16.8715 31.6304 17.203 31.7962C17.6987 32.0254 18.1481 32.3437 18.5288 32.7353C18.6554 33.11 18.7298 33.5004 18.7498 33.8954Z" fill="#1D1D1B"/>
<path d="M23.2025 35.7737H21.7661V30.0836H19.8878V28.8959H25.0807V30.1112H23.2025V35.7737Z" fill="#1D1D1B"/>
<path d="M30.0803 35.7737H26.158V28.8959H30.1355V30.1112H27.6772V31.6028H29.9974V32.8182H27.6772V34.6412H30.1631V35.8014L30.0803 35.7737Z" fill="#1D1D1B"/>
<path d="M36.9085 32.2933C36.9479 32.7648 36.8721 33.2388 36.6875 33.6744C36.5164 34.1286 36.2531 34.5425 35.9141 34.8898C35.1429 35.5316 34.1525 35.8486 33.1519 35.7737H31.2184V28.8958H33.3729C33.8338 28.8684 34.2957 28.9324 34.7318 29.084C35.1679 29.2357 35.5697 29.4722 35.9141 29.7797C36.2353 30.1094 36.4804 30.5054 36.6323 30.9399C36.8748 31.3468 36.9722 31.8239 36.9085 32.2933V32.2933ZM35.4169 32.3486C35.4169 30.857 34.754 30.1388 33.4834 30.1388H32.6492V34.6688H33.2569C34.6932 34.6136 35.4114 33.8402 35.4114 32.3486H35.4169Z" fill="#1D1D1B"/>
<path d="M39.6155 35.7737V28.8959H41.0518V35.8014L39.6155 35.7737Z" fill="#1D1D1B"/>
<path d="M48.8965 35.7737H47.0126L44.0295 30.5808H43.9742C44.0295 31.52 44.0847 32.1829 44.0847 32.5696V35.7737H42.8141V28.8959H44.6371L47.6203 34.0336C47.5651 33.1497 47.5651 32.4867 47.5651 32.1553V28.8959H48.8909L48.8965 35.7737Z" fill="#1D1D1B"/>
<path d="M20.0922 41.569H22.7992V45.1598C22.3833 45.2839 21.9585 45.3762 21.5286 45.436C21.1267 45.5027 20.7205 45.5396 20.3132 45.5465C19.8648 45.5733 19.4154 45.5171 18.9874 45.3808C18.5695 45.2279 18.1918 44.9824 17.8825 44.6626C17.275 43.9185 16.9782 42.9686 17.0538 42.0109C17.0417 41.5409 17.1166 41.0726 17.2748 40.6298C17.4474 40.1926 17.7111 39.7972 18.0482 39.4697C18.3982 39.1473 18.8124 38.9026 19.2636 38.7515C19.7255 38.5934 20.2118 38.5185 20.6999 38.5305C21.4041 38.5386 22.0994 38.689 22.744 38.9725L22.2468 40.1326C21.7743 39.8696 21.2406 39.7361 20.6999 39.7459C20.4156 39.7473 20.1343 39.8036 19.8713 39.9116C19.6082 40.0122 19.3786 40.1845 19.2084 40.4088C18.8144 40.8894 18.617 41.5012 18.6559 42.1214C18.6042 42.7259 18.7601 43.33 19.0979 43.834C19.2616 44.0283 19.4702 44.18 19.7055 44.2759C19.9256 44.3927 20.1787 44.4316 20.4237 44.3864C20.7394 44.3769 21.0536 44.3399 21.3629 44.2759V42.8396H20.037V41.569H20.0922Z" fill="#1D1D1B"/>
<path d="M27.8816 45.436H23.9041V38.5305H27.8816V39.7459H25.3956V41.2375H27.7159V42.4528H25.3956V44.2206H27.8816V45.436Z" fill="#1D1D1B"/>
<path d="M30.4394 42.7843V45.4361H29.0031V38.5306H30.9918C31.726 38.4768 32.459 38.6504 33.0911 39.0277C33.3181 39.2184 33.4898 39.4664 33.5883 39.7459C33.7014 40.0267 33.7577 40.3271 33.754 40.6298C33.7548 41.0227 33.6395 41.4071 33.4226 41.7347C33.2029 42.0764 32.8707 42.3304 32.4834 42.4529C33.5331 43.9997 34.196 44.9941 34.5274 45.4361H32.9254L31.3233 42.7843H30.4394ZM30.4394 41.6242H30.9366C31.2815 41.6366 31.6238 41.5606 31.931 41.4032C32.0389 41.307 32.132 41.1953 32.2072 41.0718C32.2809 40.8192 32.2809 40.5509 32.2072 40.2984C32.1447 40.1808 32.0485 40.0847 31.931 40.0221C31.6041 39.8647 31.2439 39.7888 30.8813 39.8012H30.4394V41.6242Z" fill="#1D1D1B"/>
<path d="M38.5437 45.436L36.8863 40.0221H36.8311C36.8863 41.127 36.9416 41.8452 36.9416 42.2319V45.436H35.6157V38.5305H37.6211L39.2232 43.7787L40.9357 38.5305H42.9245V45.436H41.5434V41.6021C41.5434 41.3811 41.5434 40.8839 41.5987 40L39.8308 45.4139L38.5437 45.436Z" fill="#1D1D1B"/>
<path d="M49.0954 45.436L48.5982 43.8339H46.1122L45.615 45.436H44.0129L46.4437 38.5305H48.2115L50.6422 45.436H49.0954ZM48.2667 42.5633C48.034 41.7027 47.7574 40.8545 47.4381 40.0221C47.3816 39.8804 47.3445 39.7317 47.3276 39.5801C47.2171 39.9669 46.9409 40.9612 46.4437 42.5633H48.2667Z" fill="#1D1D1B"/>
<path d="M57.7687 45.436H55.9456L52.9624 40.1878H52.9072C52.9624 41.1269 53.0177 41.7899 53.0177 42.1213V45.3255H51.7471V38.4752H53.5701L56.5533 43.6129C56.5533 42.729 56.4981 42.0661 56.4981 41.7346V38.5305H57.8239L57.7687 45.436Z" fill="#1D1D1B"/>
<path d="M61.8566 41.4033L63.293 38.5858H64.8951L62.63 42.7844V45.4692H61.1937V42.8175L58.9287 38.5637H60.5308L61.8566 41.4033Z" fill="#1D1D1B"/>
<path d="M96.8537 23.7582C95.6401 18.0637 92.7998 12.8438 88.6776 8.73187C87.2893 7.33396 85.7517 6.09273 84.0924 5.03053C80.6883 2.79815 76.8774 1.2588 72.8779 0.500523C69.0384 -0.218655 65.0939 -0.162305 61.2766 0.666254C55.6187 1.89207 50.4376 4.7321 46.3608 8.84236C42.0999 13.1682 39.2329 18.6714 38.1294 24.6421C38.0654 24.9514 38.0284 25.2656 38.0189 25.5813H39.4C40.1051 22.5185 41.339 19.6021 43.0461 16.9632C45.8443 12.7304 49.8193 9.40833 54.4816 7.40602C59.145 5.40453 64.2965 4.82788 69.287 5.7487C71.0243 6.08474 72.726 6.58415 74.3694 7.24029C79.921 9.46345 84.529 13.5443 87.407 18.7863C90.2815 24.0432 91.2755 30.1238 90.2245 36.0224C89.572 39.4906 88.2389 42.7952 86.3021 45.7453C84.4221 48.5958 81.9983 51.0475 79.1695 52.96C76.3407 54.8725 73.1625 56.2082 69.8167 56.8907C66.471 57.5732 63.0235 57.589 59.6716 56.9373C56.3198 56.2856 53.1294 54.9792 50.2831 53.0928C49.0573 52.2815 47.9105 51.3567 46.858 50.3306H45.5321C45.8636 50.662 46.1398 51.0487 46.4712 51.325C47.8596 52.7229 49.3972 53.9641 51.0565 55.0263C56.0089 58.3298 61.8427 60.0626 67.7954 59.9983C73.7536 59.9408 79.5603 58.1141 84.4783 54.7502C89.3963 51.3863 93.2038 46.6368 95.4174 41.1048C97.5731 35.5854 98.0723 29.5571 96.8537 23.7582V23.7582Z" fill="#1E1E1C"/>
<path d="M86.1364 24.145C84.4268 19.8838 81.5079 16.2159 77.7393 13.5934C73.975 10.9802 69.505 9.57375 64.9227 9.56056C61.8938 9.50002 58.8849 10.0642 56.0836 11.2179C51.9205 12.8845 48.3314 15.725 45.753 19.394C44.8892 20.645 44.1491 21.9772 43.5433 23.3715C43.2098 24.1044 42.9328 24.8616 42.7146 25.6365H44.5376C45.865 22.7422 47.8671 20.2083 50.3759 18.2474C52.8847 16.2865 55.8271 14.9558 58.9563 14.3668C60.2483 14.1172 61.5631 14.0061 62.8786 14.0353C67.534 14.0827 72.0286 15.7443 75.5953 18.7367C79.1619 21.729 81.5793 25.8665 82.435 30.4428C82.6823 31.735 82.7934 33.0497 82.7665 34.3651C82.7254 37.0859 82.1433 39.7714 81.0539 42.265C79.9983 44.6759 78.4761 46.8541 76.5752 48.6742C74.6742 50.4944 72.4319 51.9205 69.9775 52.8704C67.523 53.8203 64.9049 54.2754 62.2739 54.2092C59.6429 54.1431 57.0509 53.5572 54.6473 52.4851C53.3173 51.8896 52.0574 51.1485 50.8907 50.2754H49.7306C50.2956 50.766 50.8856 51.2269 51.4984 51.6565C52.7334 52.5608 54.068 53.3207 55.476 53.9215C56.9188 54.5405 58.4171 55.0214 59.9507 55.3578C61.4757 55.6869 63.0312 55.8535 64.5912 55.855C68.3975 55.928 72.1614 55.0461 75.5391 53.2897C78.9167 51.5333 81.8004 48.9585 83.9266 45.8006C86.509 42.0007 87.9119 37.5229 87.9594 32.9288C87.8167 29.9233 87.2014 26.959 86.1364 24.145Z" fill="#CC151A"/>
<path d="M77.1316 29.5035C75.9083 26.4616 73.8375 23.8348 71.1653 21.9351C70.258 21.3155 69.2966 20.7793 68.2926 20.333C66.2082 19.394 63.9494 18.9046 61.6633 18.8967C59.0149 18.8772 56.3992 19.4823 54.0283 20.6629C51.6575 21.8435 49.5984 23.5664 48.0181 25.6917H50.504C52.4405 24.0227 54.7854 22.8979 57.299 22.4323C59.2169 22.0636 61.1892 22.0824 63.0997 22.4876C65.9621 23.0766 68.5693 24.5444 70.5576 26.6861C72.4952 28.7488 73.8158 31.3134 74.3694 34.0888C74.5434 35.0367 74.6358 35.9978 74.6456 36.9615C74.6317 38.9567 74.2185 40.929 73.4303 42.7621C72.4704 44.9345 70.9995 46.8427 69.1431 48.324C67.2866 49.8054 65.0995 50.8159 62.7682 51.2697C61.8207 51.4463 60.8594 51.5387 59.8955 51.5459C58.0807 51.5014 56.287 51.1464 54.5921 50.4962H53.0453C53.5747 50.8162 54.1289 51.0933 54.7026 51.3249C55.7515 51.7821 56.8434 52.1337 57.962 52.3745C59.0701 52.6122 60.1987 52.7417 61.3319 52.7612C64.06 52.7785 66.7517 52.1342 69.1763 50.8834C71.6009 49.6326 73.6861 47.8127 75.2533 45.5795C75.8692 44.6719 76.4017 43.7104 76.8444 42.7068C77.7893 40.6049 78.2788 38.3269 78.2807 36.0223C78.354 33.7932 77.9627 31.5732 77.1316 29.5035V29.5035Z" fill="#F9B006"/>
</svg>
